<?xml version="1.0" encoding="UTF-8"?>
<svg id="Ebene_1" data-name="Ebene 1" xmlns="http://www.w3.org/2000/svg" viewBox="0 0 28.58 31.05">
  <defs>
    <style>
      .cls-1 {
        fill: #d80b69;
      }

      .cls-2 {
        fill: #ffd405;
      }
    </style>
  </defs>
  <polygon class="cls-1" points="17.68 0 11.58 0 0 9.18 0 24.2 7.61 31.05 21.32 19.19 21.32 13.85 18.37 11.1 15.27 14.07 16.94 15.58 16.93 17.72 7.61 25.7 4.59 23.03 4.46 10.69 17.68 0"/>
  <polygon class="cls-2" points="11.1 31.05 17.14 31.05 28.58 22.14 28.58 6.99 20.91 0 7.27 12.27 7.27 17.68 10.05 20.37 13.22 17.33 11.68 15.84 11.68 13.78 20.97 5.62 24.26 8.5 24.33 20.56 11.1 31.05"/>
</svg>